<svg version="1.1" id="Layer_1" xmlns="http://www.w3.org/2000/svg" xmlns:xlink="http://www.w3.org/1999/xlink" x="0px" y="0px"
	 width="100%" viewBox="0 0 636 212" enable-background="new 0 0 636 212" xml:space="preserve">
<path fill="#000000" opacity="1.000000" stroke="none" 
	d="
M413.000000,213.000000 
	C275.333344,213.000000 138.166702,213.000000 1.000037,213.000000 
	C1.000025,142.333359 1.000025,71.666718 1.000012,1.000056 
	C212.999954,1.000037 424.999908,1.000037 636.999878,1.000019 
	C636.999939,71.666603 636.999939,142.333206 637.000000,212.999908 
	C562.500000,213.000000 488.000000,213.000000 413.000000,213.000000 
M42.385220,83.381790 
	C41.469978,86.839828 40.193821,90.249077 39.718243,93.766556 
	C38.855824,100.145164 38.470203,106.588226 37.800831,113.713951 
	C37.810951,114.428062 37.821068,115.142166 37.172054,115.999069 
	C37.052269,117.334511 36.932487,118.669945 36.759983,120.590370 
	C36.731441,120.980675 36.702900,121.370972 36.132156,121.882965 
	C36.029648,122.590607 35.927135,123.298241 35.749176,124.707886 
	C35.394897,126.059723 35.040619,127.411560 34.033611,128.921600 
	C33.808975,129.694763 33.584343,130.467911 32.870747,131.585022 
	C32.599922,132.093491 32.329098,132.601959 31.150257,133.020096 
	C27.285095,132.760269 23.419931,132.500458 20.737072,132.320114 
	C17.108536,136.546112 13.951852,140.222580 11.246687,143.373169 
	C13.987341,143.564819 17.487305,143.809586 21.327421,144.724152 
	C22.811491,144.581955 24.295561,144.439774 26.161863,144.260956 
	C24.855799,149.109238 22.393354,153.730209 22.785946,158.094345 
	C23.160679,162.259933 25.642345,167.163193 28.798927,169.886017 
	C31.848431,172.516434 36.941067,172.778244 41.805618,174.288330 
	C40.854660,176.150223 39.426914,178.945618 37.999172,181.740997 
	C38.434841,182.119217 38.870506,182.497437 39.306175,182.875656 
	C41.574478,180.762466 43.842781,178.649292 45.092846,177.484711 
	C49.202648,179.793564 53.058559,181.959778 56.973347,184.919678 
	C56.801048,186.885620 56.628750,188.851547 56.387230,191.607300 
	C58.608414,189.088867 60.348793,187.115570 62.834999,184.881973 
	C63.319935,184.899124 63.804874,184.916260 64.331230,185.282303 
	C64.611595,185.211334 64.891968,185.140381 65.618156,185.357346 
	C66.072662,185.574127 66.527161,185.790894 67.154152,186.345108 
	C67.462090,186.239929 67.770027,186.134735 68.582260,186.169144 
	C69.088951,186.295502 69.595642,186.421860 70.747658,186.971725 
	C73.466148,185.836929 76.184639,184.702133 79.322289,184.087402 
	C79.612038,184.671555 79.901787,185.255692 80.207596,186.588272 
	C77.464188,188.574860 74.828796,190.737122 71.951691,192.506271 
	C67.790352,195.065109 63.453968,197.339279 59.192261,199.734879 
	C59.336826,200.283752 59.481396,200.832642 59.625961,201.381516 
	C66.437691,200.928391 73.249420,200.475250 80.369873,200.842224 
	C96.444725,200.894608 112.519585,200.961502 128.594421,200.957825 
	C129.425156,200.957642 130.255753,200.353943 131.487640,199.994202 
	C131.487640,199.994202 131.880768,199.905731 132.662216,200.250748 
	C136.945251,200.568604 141.228271,200.886459 145.511307,201.204315 
	C145.771698,200.661285 146.032074,200.118271 146.292465,199.575241 
	C145.080521,198.342606 143.759537,197.197922 142.679260,195.859055 
	C140.411057,193.047943 138.269363,190.134750 136.816559,187.192245 
	C139.168289,185.966629 141.520004,184.741028 144.320374,183.281616 
	C145.075607,183.660309 146.789001,184.519455 148.784805,185.520218 
	C148.598007,183.641464 148.493347,182.588928 148.415863,181.809692 
	C150.830261,181.809692 152.915634,181.809692 154.756409,181.809692 
	C155.276062,180.089233 155.374100,178.281769 156.268356,177.054428 
	C160.728439,170.933029 165.397690,164.964020 170.722015,159.009399 
	C172.716049,159.859207 174.710083,160.709000 175.876740,161.206192 
	C174.153854,156.548126 172.367340,151.717972 171.418243,146.803818 
	C172.552795,146.803818 173.687363,146.803818 174.821915,146.803818 
	C165.499908,141.697144 162.936661,132.517197 160.437714,123.821960 
	C156.685974,110.767525 153.961731,97.417786 150.820206,83.375114 
	C150.126999,81.072075 149.821823,78.546829 148.657516,76.513542 
	C146.426559,72.617538 144.937332,68.858322 146.804153,65.822983 
	C154.197708,66.933289 161.178436,67.981606 168.037598,69.737953 
	C166.029678,71.907234 164.021744,74.076515 162.281540,75.956543 
	C167.235153,75.956543 172.341263,75.956543 177.357712,75.956543 
	C180.140762,72.370338 183.287994,68.314835 186.048767,64.757332 
	C182.164978,64.757332 178.131241,64.757332 174.370438,64.156288 
	C179.608810,57.546883 181.341278,49.683147 181.926697,41.583759 
	C182.118073,38.935966 181.387161,35.815487 179.993088,33.591183 
	C178.931183,31.896908 176.222122,30.720816 174.107391,30.466726 
	C173.318375,30.371922 171.436035,33.487030 171.289169,35.242001 
	C171.033966,38.291744 171.609787,41.441589 172.072266,44.514080 
	C172.878983,49.873531 170.731720,54.001701 166.124100,57.020649 
	C160.277725,60.851254 155.094757,58.553730 150.162918,55.282433 
	C154.356583,53.825424 158.550247,52.368420 162.629578,50.951138 
	C163.412872,47.229492 164.258865,43.209988 165.066391,39.373310 
	C160.469666,40.160831 156.378571,40.861729 153.251984,41.397385 
	C151.755096,45.551785 150.389725,49.341167 148.975693,52.309990 
	C146.978027,47.719681 144.987488,43.126263 142.978836,38.540768 
	C142.283707,36.953876 141.543686,35.386654 140.931656,33.038849 
	C140.026062,28.908707 139.120483,24.778564 138.167526,20.432407 
	C135.673264,22.189484 132.856766,24.173557 129.775864,25.495483 
	C122.867477,22.160301 116.246597,17.141069 108.980598,15.900598 
	C99.082314,14.210736 88.691826,15.399483 78.512344,15.385546 
	C78.245659,15.385181 77.990242,15.769383 77.709793,15.942122 
	C70.782539,20.208830 63.852612,24.471199 56.658760,28.897001 
	C54.897339,27.601885 52.284786,25.680962 49.419094,23.573908 
	C45.586582,27.406406 43.067089,31.232130 42.999096,36.623768 
	C42.899990,44.482517 42.333988,52.335377 41.304966,59.883438 
	C39.612743,56.476410 37.920525,53.069386 36.630463,50.472042 
	C31.618904,49.472263 26.847795,48.520451 22.460646,47.645233 
	C24.532576,51.825706 26.700102,56.199055 28.498678,59.827988 
	C33.478550,61.249462 38.208752,62.599674 43.551590,64.272369 
	C46.562378,66.471535 49.319744,68.772308 46.691299,73.643806 
	C45.485565,76.789696 44.279835,79.935593 42.385220,83.381790 
M591.921265,156.981415 
	C604.854858,156.981415 617.788452,156.981415 630.707031,156.981415 
	C630.707031,152.364822 630.707031,148.297134 630.707031,143.809967 
	C622.678040,143.809967 614.933533,143.809967 607.334778,143.809967 
	C607.334778,139.967712 607.334778,136.568222 607.334778,132.746796 
	C614.074524,132.746796 620.484253,132.746796 626.615967,132.746796 
	C626.615967,128.229858 626.615967,124.162544 626.615967,119.836662 
	C619.965820,119.836662 613.681946,119.836662 607.236816,119.836662 
	C607.236816,116.164505 607.236816,112.767105 607.236816,108.939697 
	C615.207581,108.939697 622.952576,108.939697 630.701416,108.939697 
	C630.701416,104.772507 630.701416,101.045891 630.701416,97.167206 
	C617.256226,97.167206 604.125000,97.167206 590.164490,97.420174 
	C590.110962,116.606148 590.048157,135.792114 590.045654,154.978104 
	C590.045593,155.596283 590.663696,156.214523 591.921265,156.981415 
M227.030365,122.231781 
	C224.284958,114.580338 221.616837,106.899208 218.702133,99.312813 
	C218.311844,98.296982 216.705750,97.160439 215.610672,97.104881 
	C210.849136,96.863304 206.068359,97.001183 201.227051,97.001183 
	C201.227051,117.211998 201.227051,136.936157 201.227051,156.773865 
	C205.857071,156.773865 210.258759,156.773865 215.020996,156.773865 
	C215.020996,146.543152 215.020996,136.530579 215.020996,125.782646 
	C218.204529,134.632278 221.077286,142.718323 224.026947,150.776215 
	C225.557373,154.957047 229.159805,152.567093 231.777985,152.835785 
	C233.032990,152.964584 235.171661,151.666946 235.683777,150.484268 
	C237.135208,147.132324 237.825424,143.460785 239.054169,139.999863 
	C240.680222,135.419861 242.532822,130.920273 244.500854,125.836426 
	C244.500854,136.643250 244.500854,146.644180 244.500854,156.777954 
	C249.181854,156.777954 253.916382,156.777954 258.793945,156.777954 
	C258.793945,136.831909 258.793945,117.108292 258.793945,97.192505 
	C252.824921,97.192505 247.058670,97.192505 241.366531,97.192505 
	C237.677582,107.579483 234.029694,117.850891 230.104492,128.903076 
	C228.948441,126.332420 228.187149,124.639610 227.030365,122.231781 
M546.510376,97.000351 
	C542.414124,97.000351 538.317871,97.000351 534.301819,97.000351 
	C534.301819,117.325546 534.301819,137.041336 534.301819,156.679626 
	C539.671997,156.679626 544.732910,156.679626 550.173462,156.679626 
	C550.173462,149.614716 550.173462,142.864746 550.173462,136.114777 
	C550.627319,135.752625 551.081238,135.390488 551.535095,135.028351 
	C553.342834,136.600967 555.674316,137.858093 556.850586,139.811050 
	C559.398438,144.041245 561.179138,148.728622 563.643127,153.016678 
	C564.578064,154.643738 566.438721,156.668198 568.034180,156.815598 
	C573.240845,157.296677 578.519714,156.995926 584.260071,156.995926 
	C580.352234,149.820694 576.997009,143.123413 573.090820,136.764557 
	C571.625183,134.378616 572.132507,133.825378 574.049438,132.299118 
	C580.387390,127.252937 583.275574,116.234444 580.531555,109.027336 
	C577.575562,101.263611 570.826111,97.000542 561.490540,97.000641 
	C556.829651,97.000687 552.168823,97.000458 546.510376,97.000351 
M474.998749,136.506744 
	C474.998810,132.673904 475.392090,128.791962 474.920685,125.018028 
	C473.787231,115.944016 470.517426,107.600128 458.624481,109.117928 
	C454.913086,109.591576 451.377106,111.446922 447.764252,112.679832 
	C446.893402,112.977013 446.036224,113.314278 445.124542,113.650925 
	C445.002625,112.376915 444.897095,111.274277 444.801483,110.275253 
	C440.082428,110.275253 435.657990,110.275253 431.278351,110.275253 
	C431.278351,125.955399 431.278351,141.359970 431.278351,156.718170 
	C436.632263,156.718170 441.704224,156.718170 446.999756,156.718170 
	C446.999756,147.462570 446.938354,138.486343 447.031769,129.511734 
	C447.066284,126.192963 451.047241,122.818443 454.328369,122.999664 
	C458.438995,123.226700 458.035736,126.144394 458.020325,128.973206 
	C457.969818,138.239670 458.001373,147.506577 458.001373,156.715851 
	C463.968445,156.715851 469.373383,156.715851 474.722198,156.715851 
	C474.849060,156.123184 474.972809,155.812531 474.973694,155.501511 
	C474.990631,149.502472 474.993225,143.503387 474.998749,136.506744 
M309.998718,136.532913 
	C309.664978,131.967026 309.538300,127.374268 308.949890,122.841446 
	C308.023102,115.701859 301.903534,109.652573 295.044159,109.031647 
	C285.588470,108.175674 276.688629,109.692787 268.957336,115.823647 
	C269.834564,117.257088 270.707214,118.592125 271.485352,119.980156 
	C272.260498,121.362915 272.685974,123.050331 273.748352,124.126991 
	C274.513000,124.901917 276.220856,125.422318 277.246887,125.132378 
	C279.978821,124.360390 282.497070,122.820724 285.233948,122.080528 
	C289.105042,121.033562 292.339417,123.267776 292.569580,126.679855 
	C289.984711,127.001976 287.362915,127.140007 284.833588,127.697517 
	C282.357086,128.243393 279.951782,129.152557 277.555664,130.014740 
	C271.399841,132.229752 268.044617,136.995346 268.012024,143.620956 
	C267.976837,150.773483 270.643646,156.415192 276.902039,158.312119 
	C283.689453,160.369385 289.982117,158.888046 295.074524,154.741043 
	C299.718750,159.144821 305.004761,155.946411 309.998718,157.170532 
	C309.998718,150.126022 309.998718,143.824829 309.998718,136.532913 
M495.454163,128.952682 
	C494.720398,129.291138 494.018341,129.756073 493.248108,129.948944 
	C482.741333,132.579926 478.288483,143.999481 484.339752,152.856628 
	C488.596954,159.087830 496.044952,161.087311 503.218384,157.966721 
	C505.146118,157.128128 507.157562,155.693695 509.076416,155.777176 
	C513.973022,155.990204 518.839111,156.905090 523.998535,157.575699 
	C523.998535,155.573883 523.998596,154.759308 523.998596,153.944748 
	C523.998657,144.626648 524.419067,135.280258 523.794922,126.004158 
	C523.539795,122.212257 521.684998,118.091667 519.406067,114.958336 
	C513.752869,107.185585 504.769775,107.364861 497.273712,109.605721 
	C482.235901,114.101074 481.205505,112.816238 488.377472,125.720062 
	C488.444763,125.841103 488.652679,125.883995 489.217102,126.198936 
	C492.159607,124.928421 495.309937,123.340744 498.614258,122.198547 
	C502.821503,120.744217 505.586853,122.452332 506.548401,126.420135 
	C503.066925,127.078697 499.573792,127.739471 495.454163,128.952682 
M388.429260,111.953468 
	C380.521088,113.980362 380.288635,116.224976 386.977600,125.969612 
	C402.770386,121.094543 402.770386,121.094543 404.611481,125.976974 
	C399.897736,127.312416 395.177673,128.731750 390.412079,129.976654 
	C385.649384,131.220810 380.379944,136.600342 380.021942,141.018829 
	C379.486328,147.628830 379.966949,154.503479 386.984985,157.124588 
	C391.307678,158.738998 396.639099,157.897736 401.499268,157.702423 
	C403.346527,157.628189 405.186523,155.540085 406.953278,155.646057 
	C411.847870,155.939621 416.702148,156.904785 421.997986,157.665665 
	C421.997986,146.075989 422.531830,135.593918 421.833374,125.194611 
	C421.247711,116.474998 414.562103,108.248940 404.327240,109.070503 
	C399.205780,109.481598 394.142883,110.622650 388.429260,111.953468 
M334.994843,155.288269 
	C334.996155,150.125977 335.199493,144.954163 334.956512,139.803406 
	C334.457794,129.230194 335.516052,123.170509 349.724884,123.760811 
	C350.841553,119.485069 351.968903,115.168556 353.084503,110.896988 
	C346.870453,107.050392 339.373871,108.479858 333.802429,114.902924 
	C331.493347,109.189331 331.111633,109.070213 319.195618,110.426956 
	C319.195618,125.801453 319.195618,141.197952 319.195618,157.307892 
	C324.594421,156.946228 329.768463,156.599640 334.994843,155.288269 
M371.999329,135.499878 
	C371.999329,127.070320 371.999329,118.640762 371.999329,110.289291 
	C366.352844,110.289291 361.282043,110.289291 356.285950,110.289291 
	C356.285950,125.979828 356.285950,141.380890 356.285950,156.711914 
	C361.646576,156.711914 366.717468,156.711914 371.999329,156.711914 
	C371.999329,149.783539 371.999329,143.141678 371.999329,135.499878 
M370.096832,91.009430 
	C367.377197,90.673172 364.658081,90.065414 361.937805,90.060249 
	C357.086761,90.051048 353.150696,95.624298 355.529144,99.768417 
	C357.029053,102.381859 360.050598,104.947159 362.899384,105.770821 
	C367.338165,107.054192 370.978882,104.891266 373.194061,100.399788 
	C375.133545,96.467369 373.291870,93.919968 370.096832,91.009430 
M191.883423,130.575119 
	C188.021683,127.356987 184.159958,124.138855 180.535294,121.118279 
	C176.147415,121.942787 171.244553,122.864067 166.341675,123.785347 
	C167.018005,123.141937 167.694336,122.498528 168.370667,121.855125 
	C170.689407,125.165459 173.169724,128.377472 175.266205,131.823044 
	C176.521866,133.886765 177.266525,134.122589 179.766388,133.242447 
	C183.550659,131.910110 187.798706,131.895111 191.883423,130.575119 
M179.842255,103.295212 
	C180.526520,104.365990 181.210785,105.436760 181.194092,105.410629 
	C186.269501,102.205246 190.357605,99.623398 194.062057,97.283844 
	C189.860245,95.579140 185.418121,93.776939 181.443512,92.164421 
	C177.250473,94.668312 172.941452,97.241470 169.047394,99.566826 
	C172.191513,100.635109 175.670700,101.817230 179.842255,103.295212 
M31.556089,84.090492 
	C27.953531,81.051186 24.350975,78.011879 21.117428,75.283897 
	C16.889877,76.020226 12.241370,76.829880 8.930536,77.406548 
	C11.738125,80.232063 15.199261,83.715294 18.834852,87.374100 
	C20.017105,87.058228 22.137001,86.376358 24.306496,85.942467 
	C26.822981,85.439186 29.383018,85.153679 31.556089,84.090492 
M17.285603,116.924049 
	C20.702553,114.329987 24.119503,111.735924 27.317114,109.308380 
	C23.725346,107.462517 19.768248,105.428909 16.083368,103.535202 
	C11.813542,106.075676 7.430512,108.683510 3.894750,110.787239 
	C7.871560,112.741508 12.191072,114.864189 17.285603,116.924049 
z"/>
<path fill="#BAA9A4" opacity="1.000000" stroke="none" 
	d="
M150.800583,84.193611 
	C153.961731,97.417786 156.685974,110.767525 160.437714,123.821960 
	C162.936661,132.517197 165.499908,141.697144 174.821915,146.803818 
	C173.687363,146.803818 172.552795,146.803818 170.705414,146.798737 
	C169.673203,147.633698 169.042206,148.491699 169.089401,149.310608 
	C169.274750,152.527573 169.673721,155.732193 169.993378,158.941406 
	C165.397690,164.964020 160.728439,170.933029 156.268356,177.054428 
	C155.374100,178.281769 155.276062,180.089233 154.756409,181.809692 
	C152.915634,181.809692 150.830261,181.809692 148.415863,181.809692 
	C148.493347,182.588928 148.598007,183.641464 148.784805,185.520218 
	C146.789001,184.519455 145.075607,183.660309 144.320374,183.281616 
	C141.520004,184.741028 139.168289,185.966629 136.130356,187.002457 
	C131.639969,185.225220 127.835793,183.637772 124.002029,181.618851 
	C123.636284,177.542999 122.872391,173.876434 123.059868,170.259201 
	C123.375450,164.170319 124.295120,158.112732 124.859177,151.734528 
	C124.508080,150.619125 124.258499,149.811172 124.325653,148.833603 
	C125.097687,147.111969 125.552986,145.559967 126.298355,143.782837 
	C127.379242,140.340576 128.170059,137.123428 129.118225,133.588684 
	C130.470612,128.865555 131.755478,124.480804 132.782104,120.036400 
	C132.978775,119.185013 132.381653,117.423119 131.774612,117.223160 
	C123.717682,114.569199 117.637718,107.693100 108.754417,106.703392 
	C105.617111,106.353851 102.613907,104.800674 100.431465,104.085892 
	C100.431465,101.614410 100.741287,99.712471 100.371315,97.953499 
	C99.399750,93.334358 98.107216,88.783546 96.991028,84.193733 
	C96.237335,81.094498 95.565948,77.975243 95.057358,74.548431 
	C96.505150,69.231941 98.111908,64.286911 98.889206,59.214767 
	C99.522331,55.083328 101.021370,52.070442 105.357170,51.908787 
	C110.533524,51.715786 116.039528,51.127144 120.863976,52.544170 
	C133.100647,56.138290 141.232941,64.840843 146.654907,76.214035 
	C147.944031,78.918121 149.413864,81.536049 150.800583,84.193611 
M103.942520,89.842484 
	C103.514580,89.161591 103.086632,88.480705 102.480125,87.515701 
	C102.264717,95.721077 104.813713,101.254715 109.235550,101.865715 
	C107.519669,97.962982 105.877220,94.227257 103.942520,89.842484 
z"/>
<path fill="#ECE1D0" opacity="1.000000" stroke="none" 
	d="
M124.960693,152.041992 
	C124.295120,158.112732 123.375450,164.170319 123.059868,170.259201 
	C122.872391,173.876434 123.636284,177.542999 123.986938,181.991089 
	C126.627892,188.498459 129.254333,194.202087 131.880768,199.905731 
	C131.880768,199.905731 131.487640,199.994202 130.813171,200.004044 
	C113.721565,199.983734 97.304428,199.953583 80.935364,199.550537 
	C81.563690,198.387299 82.006302,197.423691 82.747002,196.835388 
	C86.903122,193.534454 89.512054,189.525192 89.413437,184.027100 
	C95.916100,186.227051 107.405861,177.926956 111.360458,170.898987 
	C112.442001,169.753983 113.212601,168.732208 113.983200,167.710419 
	C113.658546,167.396988 113.333893,167.083557 113.009239,166.770126 
	C112.005775,167.543839 111.002304,168.317566 109.636360,169.086853 
	C105.843430,171.051010 102.412979,173.019623 98.653137,175.046967 
	C97.882141,175.170090 97.440529,175.234497 96.679169,175.166840 
	C94.250542,174.734451 92.141655,174.434097 89.719833,173.975311 
	C86.672333,172.516418 83.937759,171.215942 81.121613,169.529144 
	C79.383690,168.745422 77.727341,168.348022 75.902069,167.650726 
	C73.227898,165.872437 70.722656,164.394043 68.144966,162.590240 
	C67.383339,161.858353 66.694160,161.451874 65.705498,160.875397 
	C64.617592,159.149734 63.829163,157.594055 63.366962,155.996399 
	C64.131721,155.962341 64.570251,155.970276 65.018394,156.235382 
	C65.144135,156.731293 65.260269,156.970047 65.376396,157.208786 
	C65.580605,156.800797 65.784813,156.392807 65.994667,155.992401 
	C66.000305,156.000000 65.985840,155.988434 66.283981,156.015457 
	C67.052414,156.359848 67.522697,156.677216 67.852715,157.050674 
	C67.810173,157.073624 67.907906,157.040482 68.404800,157.005585 
	C72.030708,157.326111 72.171021,155.267639 72.165802,152.662781 
	C74.096947,150.535156 76.345200,148.933014 77.402657,146.753189 
	C79.186195,143.076660 77.683929,141.955856 73.457680,142.100159 
	C68.144211,142.281586 62.317371,143.231583 59.073250,137.112518 
	C58.186020,137.920593 57.587875,138.465363 56.714577,138.808426 
	C55.939121,137.747833 55.577663,136.758408 54.914299,136.052826 
	C52.143726,133.105942 52.020233,130.919128 55.005848,127.450310 
	C59.450512,122.286308 62.772400,116.153618 66.524902,110.402367 
	C66.734070,110.081787 66.465546,109.477486 66.502136,109.011749 
	C66.717964,106.265167 66.850952,103.506393 67.209938,100.777786 
	C68.429054,91.511322 69.730927,82.255753 71.331436,72.828339 
	C73.051315,71.749825 74.345116,70.606377 75.853920,69.984818 
	C77.915466,69.135544 80.140633,68.683418 82.698608,67.944664 
	C83.587418,69.149895 84.752632,71.154396 86.324394,72.761230 
	C88.650017,75.138741 91.222549,77.407471 94.857742,74.864944 
	C95.565948,77.975243 96.237335,81.094498 96.991028,84.193733 
	C98.107216,88.783546 99.399750,93.334358 100.371315,97.953499 
	C100.741287,99.712471 100.431465,101.614410 100.431465,104.085892 
	C102.613907,104.800674 105.617111,106.353851 108.754417,106.703392 
	C117.637718,107.693100 123.717682,114.569199 131.774612,117.223160 
	C132.381653,117.423119 132.978775,119.185013 132.782104,120.036400 
	C131.755478,124.480804 130.470612,128.865555 128.747742,133.643219 
	C125.296684,135.009354 122.359909,135.965820 119.456543,137.014771 
	C118.196869,137.469879 117.006012,138.115433 115.448944,138.722824 
	C114.432777,138.709152 113.751564,138.647125 113.083084,138.547028 
	C113.095833,138.508957 113.033112,138.458817 113.229416,138.291107 
	C113.282944,137.748245 113.140175,137.373077 112.665268,136.963943 
	C108.757820,137.621735 107.497536,141.815384 110.073685,145.510223 
	C113.646797,150.634949 118.920654,152.316681 124.960693,152.041992 
M111.908432,122.083809 
	C111.908432,122.083809 111.968475,122.170448 111.934921,122.989807 
	C113.056992,125.918739 113.412506,129.829468 115.530350,131.482986 
	C117.410339,132.950806 122.178185,133.099289 123.983810,131.681320 
	C126.246681,129.904282 127.068787,126.001305 127.819962,122.850739 
	C127.960312,122.262054 124.836761,120.895187 122.812927,119.263008 
	C119.610962,118.356369 116.665398,115.136589 112.215042,118.029877 
	C108.039978,117.929489 105.296341,120.380974 104.592415,124.348518 
	C106.879959,123.623550 109.430305,122.815285 111.908432,122.083809 
M64.402992,125.907646 
	C64.069206,125.852570 63.742893,125.881592 63.027149,125.411011 
	C62.132011,125.615082 61.236874,125.819153 60.341736,126.023216 
	C60.554367,126.512985 60.782784,127.424950 60.976833,127.417702 
	C61.722946,127.389809 62.458050,127.067482 63.714638,127.339348 
	C64.447174,129.169968 64.852905,131.245209 65.994156,132.769913 
	C67.453079,134.719040 69.258949,137.218292 71.347504,137.735611 
	C77.803413,139.334732 80.224731,135.386810 78.007896,126.319984 
	C71.633484,121.667664 70.707588,121.640442 64.402992,125.907646 
M64.579185,123.522766 
	C64.579185,123.522766 64.478165,123.583740 64.579185,123.522766 
z"/>
<path fill="#514B46" opacity="1.000000" stroke="none" 
	d="
M95.057358,74.548431 
	C91.222549,77.407471 88.650017,75.138741 86.324394,72.761230 
	C84.752632,71.154396 83.587418,69.149895 82.698608,67.944664 
	C80.140633,68.683418 77.915466,69.135544 75.853920,69.984818 
	C74.345116,70.606377 73.051315,71.749825 71.349785,72.486816 
	C70.342690,72.176361 69.256081,71.693031 69.018227,71.961548 
	C67.816582,73.318100 67.136421,75.343437 65.710999,76.249107 
	C63.232964,77.823578 60.255791,79.815231 57.652878,79.603523 
	C55.630527,79.439041 53.729294,76.295212 52.032799,74.260071 
	C51.217213,73.281670 50.998848,71.805435 50.430389,70.350845 
	C49.471268,71.563072 48.772331,72.446449 47.827370,73.257919 
	C47.414566,73.149353 47.247787,73.112686 47.081013,73.076027 
	C49.319744,68.772308 46.562378,66.471535 43.311691,63.775078 
	C42.703545,62.248775 42.335293,61.219765 41.967041,60.190750 
	C42.333988,52.335377 42.899990,44.482517 42.999096,36.623768 
	C43.067089,31.232130 45.586582,27.406406 49.419094,23.573908 
	C52.284786,25.680962 54.897339,27.601885 56.658760,28.897001 
	C63.852612,24.471199 70.782539,20.208830 77.709793,15.942122 
	C77.990242,15.769383 78.245659,15.385181 78.512344,15.385546 
	C88.691826,15.399483 99.082314,14.210736 108.980598,15.900598 
	C116.246597,17.141069 122.867477,22.160301 130.081940,26.101706 
	C133.866745,29.075434 137.345444,31.442940 140.824158,33.810444 
	C141.543686,35.386654 142.283707,36.953876 142.978836,38.540768 
	C144.987488,43.126263 146.978027,47.719681 149.020981,53.036720 
	C149.314255,54.491886 149.562256,55.220325 149.810242,55.948761 
	C155.094757,58.553730 160.277725,60.851254 166.124100,57.020649 
	C170.731720,54.001701 172.878983,49.873531 172.072266,44.514080 
	C171.609787,41.441589 171.033966,38.291744 171.289169,35.242001 
	C171.436035,33.487030 173.318375,30.371922 174.107391,30.466726 
	C176.222122,30.720816 178.931183,31.896908 179.993088,33.591183 
	C181.387161,35.815487 182.118073,38.935966 181.926697,41.583759 
	C181.341278,49.683147 179.608810,57.546883 173.876831,64.467056 
	C171.963028,65.856865 170.542847,66.935913 168.827332,68.074593 
	C168.366287,68.450890 168.200562,68.767548 168.051849,69.038429 
	C168.068878,68.992661 168.159164,69.029915 168.159164,69.029915 
	C161.178436,67.981606 154.197708,66.933289 146.804153,65.822983 
	C144.937332,68.858322 146.426559,72.617538 148.657516,76.513542 
	C149.821823,78.546829 150.126999,81.072075 150.810394,83.784363 
	C149.413864,81.536049 147.944031,78.918121 146.654907,76.214035 
	C141.232941,64.840843 133.100647,56.138290 120.863976,52.544170 
	C116.039528,51.127144 110.533524,51.715786 105.357170,51.908787 
	C101.021370,52.070442 99.522331,55.083328 98.889206,59.214767 
	C98.111908,64.286911 96.505150,69.231941 95.057358,74.548431 
M83.075050,36.795773 
	C88.680977,33.982563 89.825089,29.845797 86.101440,24.757519 
	C85.045326,23.314354 83.180832,22.462765 81.687065,21.339878 
	C79.805847,24.484644 76.976822,27.442722 76.310280,30.826738 
	C75.645226,34.203209 77.980865,37.159157 83.075050,36.795773 
M79.581924,43.993786 
	C74.939049,44.498329 74.562561,48.043587 75.239288,51.280975 
	C75.609528,53.052174 78.112190,55.827641 79.350784,55.676220 
	C82.248024,55.322025 86.608459,55.571930 86.877312,51.016651 
	C87.126785,46.789513 84.808929,44.255489 79.581924,43.993786 
M56.404255,52.636703 
	C56.193493,52.894764 55.988289,53.157608 55.771099,53.410137 
	C53.858715,55.633667 52.589890,58.397583 55.273788,60.365173 
	C57.221573,61.793110 60.284557,62.463463 62.697300,62.178116 
	C63.942532,62.030849 65.876053,58.953945 65.708107,57.393452 
	C65.336464,53.940239 62.738110,51.986633 59.056904,51.983017 
	C58.397926,51.982376 57.738796,52.136906 56.404255,52.636703 
M48.119728,31.604332 
	C44.662647,36.981499 44.985500,39.824066 49.518982,43.873737 
	C51.587502,42.997643 53.656021,42.121548 55.674210,41.266766 
	C56.251545,34.895218 54.049515,31.716141 48.119728,31.604332 
z"/>
<path fill="#B9A8A3" opacity="1.000000" stroke="none" 
	d="
M48.073395,73.329826 
	C48.772331,72.446449 49.471268,71.563072 50.430389,70.350845 
	C50.998848,71.805435 51.217213,73.281670 52.032799,74.260071 
	C53.729294,76.295212 55.630527,79.439041 57.652878,79.603523 
	C60.255791,79.815231 63.232964,77.823578 65.710999,76.249107 
	C67.136421,75.343437 67.816582,73.318100 69.018227,71.961548 
	C69.256081,71.693031 70.342690,72.176361 71.019547,72.654495 
	C69.730927,82.255753 68.429054,91.511322 67.209938,100.777786 
	C66.850952,103.506393 66.717964,106.265167 66.502136,109.011749 
	C66.465546,109.477486 66.734070,110.081787 66.524902,110.402367 
	C62.772400,116.153618 59.450512,122.286308 55.005848,127.450310 
	C52.020233,130.919128 52.143726,133.105942 54.914299,136.052826 
	C55.577663,136.758408 55.939121,137.747833 56.583744,139.129883 
	C58.832279,145.114838 60.936504,150.576614 63.040733,156.038391 
	C63.829163,157.594055 64.617592,159.149734 65.756531,161.205536 
	C66.810509,162.109009 67.513962,162.512329 68.217415,162.915649 
	C70.722656,164.394043 73.227898,165.872437 75.641571,167.857315 
	C76.531166,170.446732 77.512329,172.529648 78.533577,174.697678 
	C79.818535,172.395844 80.510857,171.155655 81.203171,169.915466 
	C83.937759,171.215942 86.672333,172.516418 89.555801,174.294922 
	C89.468338,176.185944 89.231972,177.598923 88.997787,179.261536 
	C88.999962,179.511185 89.007240,180.010422 89.003464,180.005219 
	C88.999695,180.000000 89.011803,180.003494 88.710815,180.150879 
	C87.923012,181.256378 87.436203,182.214478 86.597519,183.132233 
	C84.227608,184.007858 82.209572,184.923859 80.191528,185.839844 
	C79.901787,185.255692 79.612038,184.671555 78.943329,183.598572 
	C76.500160,182.061768 74.435944,181.013794 72.079704,179.817551 
	C72.079704,181.259125 72.079704,182.707535 72.175713,184.281631 
	C72.271721,184.407303 72.149124,184.698868 72.025314,184.953125 
	C71.301773,185.654312 70.702057,186.101257 70.102333,186.548203 
	C69.595642,186.421860 69.088951,186.295502 68.056122,186.088135 
	C67.347214,186.007294 67.164444,186.007477 66.981667,186.007675 
	C66.527161,185.790894 66.072662,185.574127 65.174866,185.177155 
	C64.731583,184.996948 64.289810,184.933411 64.289810,184.933411 
	C63.804874,184.916260 63.319935,184.899124 62.413704,184.657242 
	C61.035748,183.018997 60.079086,181.605469 58.868790,179.817200 
	C57.998432,181.736115 57.456451,182.931046 56.914467,184.125992 
	C53.058559,181.959778 49.202648,179.793564 45.092846,177.484711 
	C43.842781,178.649292 41.574478,180.762466 39.306175,182.875656 
	C38.870506,182.497437 38.434841,182.119217 37.999172,181.740997 
	C39.426914,178.945618 40.854660,176.150223 41.805618,174.288330 
	C36.941067,172.778244 31.848431,172.516434 28.798927,169.886017 
	C25.642345,167.163193 23.160679,162.259933 22.785946,158.094345 
	C22.393354,153.730209 24.855799,149.109238 26.161863,144.260956 
	C24.295561,144.439774 22.811491,144.581955 21.179646,144.099915 
	C24.644541,140.320755 28.257212,137.165817 32.185791,133.969254 
	C32.317635,133.639404 32.133572,133.351181 31.988754,133.047211 
	C32.028000,133.031448 32.058270,133.110428 32.058270,133.110428 
	C32.329098,132.601959 32.599922,132.093491 33.435707,131.336365 
	C34.229225,130.312927 34.457783,129.538162 34.686340,128.763397 
	C35.040619,127.411560 35.394897,126.059723 36.053139,124.163109 
	C36.462856,122.999313 36.568607,122.380295 36.674362,121.761276 
	C36.702900,121.370972 36.731441,120.980675 37.092812,120.069275 
	C37.560825,118.317543 37.696007,117.086906 37.831192,115.856277 
	C37.821068,115.142166 37.810951,114.428062 38.141525,113.095718 
	C38.824493,110.269875 39.166767,108.062263 39.717331,104.511253 
	C40.007137,107.529007 40.170109,109.226013 40.333076,110.923019 
	C40.080631,110.838425 39.828182,110.753822 39.575733,110.669228 
	C41.280777,101.824997 42.985825,92.980774 45.019306,83.968979 
	C46.256294,80.310883 47.164845,76.820358 48.073395,73.329826 
M65.509697,174.817337 
	C65.101250,174.874557 64.692802,174.931778 64.284355,174.988998 
	C64.332138,175.144730 64.412483,175.438812 64.423019,175.436340 
	C64.957283,175.310593 65.485596,175.159546 66.288742,174.893814 
	C66.188705,174.924347 66.088669,174.954895 65.509697,174.817337 
M30.094990,153.848434 
	C30.311474,157.431503 30.297771,161.054688 30.910351,164.568726 
	C31.058842,165.420532 33.272469,165.912338 34.536491,166.569672 
	C34.806484,165.069504 35.536232,163.478058 35.259972,162.086319 
	C34.442123,157.966141 33.227192,153.924774 32.171753,149.868729 
	C31.700130,150.651703 30.970772,151.862579 30.094990,153.848434 
M82.202354,175.609161 
	C82.206528,175.214554 82.210701,174.819946 82.214867,174.425339 
	C82.051102,174.423798 81.745010,174.411301 81.744164,174.422318 
	C81.713905,174.815002 81.712204,175.209869 82.202354,175.609161 
M72.786415,173.878708 
	C72.900085,173.767136 73.072586,173.670715 73.106644,173.538620 
	C73.129143,173.451340 72.957146,173.216873 72.864738,173.212646 
	C72.222755,173.183411 71.578827,173.197205 70.935516,173.197205 
	C70.932770,173.370438 70.930016,173.543671 70.927261,173.716919 
	C71.370880,173.800766 71.814491,173.884628 72.786415,173.878708 
M62.078720,167.524658 
	C62.223812,167.769684 62.368900,168.014709 62.513992,168.259735 
	C62.648491,168.007233 62.943729,167.692398 62.876198,167.518234 
	C62.794498,167.307587 62.405739,167.216003 62.078720,167.524658 
M70.520058,170.921173 
	C70.764488,170.775818 71.008919,170.630463 71.253349,170.485092 
	C71.001335,170.350296 70.685097,170.053802 70.513680,170.121902 
	C70.302399,170.205811 70.211708,170.593307 70.520058,170.921173 
M62.411652,174.397049 
	C62.390224,174.047424 62.368797,173.697784 62.347374,173.348160 
	C62.097118,173.420059 61.846863,173.491959 61.596603,173.563858 
	C61.728569,173.805893 61.860535,174.047913 62.411652,174.397049 
M37.436359,162.198456 
	C37.314140,162.288834 37.191921,162.379211 37.069695,162.469589 
	C37.172215,162.581696 37.267189,162.772980 37.379368,162.783661 
	C37.492149,162.794418 37.622059,162.625366 37.436359,162.198456 
M68.407997,173.482620 
	C68.407997,173.482620 68.522713,173.413406 68.407997,173.482620 
z"/>
<path fill="#FFFFFF" opacity="1.000000" stroke="none" 
	d="
M227.228119,122.589287 
	C228.187149,124.639610 228.948441,126.332420 230.104492,128.903076 
	C234.029694,117.850891 237.677582,107.579483 241.366531,97.192505 
	C247.058670,97.192505 252.824921,97.192505 258.793945,97.192505 
	C258.793945,117.108292 258.793945,136.831909 258.793945,156.777954 
	C253.916382,156.777954 249.181854,156.777954 244.500854,156.777954 
	C244.500854,146.644180 244.500854,136.643250 244.500854,125.836426 
	C242.532822,130.920273 240.680222,135.419861 239.054169,139.999863 
	C237.825424,143.460785 237.135208,147.132324 235.683777,150.484268 
	C235.171661,151.666946 233.032990,152.964584 231.777985,152.835785 
	C229.159805,152.567093 225.557373,154.957047 224.026947,150.776215 
	C221.077286,142.718323 218.204529,134.632278 215.020996,125.782646 
	C215.020996,136.530579 215.020996,146.543152 215.020996,156.773865 
	C210.258759,156.773865 205.857071,156.773865 201.227051,156.773865 
	C201.227051,136.936157 201.227051,117.211998 201.227051,97.001183 
	C206.068359,97.001183 210.849136,96.863304 215.610672,97.104881 
	C216.705750,97.160439 218.311844,98.296982 218.702133,99.312813 
	C221.616837,106.899208 224.284958,114.580338 227.228119,122.589287 
z"/>
<path fill="#FE01EE" opacity="1.000000" stroke="none" 
	d="
M547.009155,97.000351 
	C552.168823,97.000458 556.829651,97.000687 561.490540,97.000641 
	C570.826111,97.000542 577.575562,101.263611 580.531555,109.027336 
	C583.275574,116.234444 580.387390,127.252937 574.049438,132.299118 
	C572.132507,133.825378 571.625183,134.378616 573.090820,136.764557 
	C576.997009,143.123413 580.352234,149.820694 584.260071,156.995926 
	C578.519714,156.995926 573.240845,157.296677 568.034180,156.815598 
	C566.438721,156.668198 564.578064,154.643738 563.643127,153.016678 
	C561.179138,148.728622 559.398438,144.041245 556.850586,139.811050 
	C555.674316,137.858093 553.342834,136.600967 551.535095,135.028351 
	C551.081238,135.390488 550.627319,135.752625 550.173462,136.114777 
	C550.173462,142.864746 550.173462,149.614716 550.173462,156.679626 
	C544.732910,156.679626 539.671997,156.679626 534.301819,156.679626 
	C534.301819,137.041336 534.301819,117.325546 534.301819,97.000351 
	C538.317871,97.000351 542.414124,97.000351 547.009155,97.000351 
M564.966370,118.055824 
	C566.366882,110.765579 559.594910,106.991997 550.344971,109.656006 
	C550.344971,114.450256 550.344971,119.180000 550.344971,123.880432 
	C560.932251,124.240532 561.619324,123.991302 564.966370,118.055824 
z"/>
<path fill="#FE01EE" opacity="1.000000" stroke="none" 
	d="
M590.993774,97.167206 
	C604.125000,97.167206 617.256226,97.167206 630.701416,97.167206 
	C630.701416,101.045891 630.701416,104.772507 630.701416,108.939697 
	C622.952576,108.939697 615.207581,108.939697 607.236816,108.939697 
	C607.236816,112.767105 607.236816,116.164505 607.236816,119.836662 
	C613.681946,119.836662 619.965820,119.836662 626.615967,119.836662 
	C626.615967,124.162544 626.615967,128.229858 626.615967,132.746796 
	C620.484253,132.746796 614.074524,132.746796 607.334778,132.746796 
	C607.334778,136.568222 607.334778,139.967712 607.334778,143.809967 
	C614.933533,143.809967 622.678040,143.809967 630.707031,143.809967 
	C630.707031,148.297134 630.707031,152.364822 630.707031,156.981415 
	C617.788452,156.981415 604.854858,156.981415 591.459412,156.449203 
	C590.996277,136.333725 590.994995,116.750465 590.993774,97.167206 
z"/>
<path fill="#FFFFFF" opacity="1.000000" stroke="none" 
	d="
M474.998779,137.005524 
	C474.993225,143.503387 474.990631,149.502472 474.973694,155.501511 
	C474.972809,155.812531 474.849060,156.123184 474.722198,156.715851 
	C469.373383,156.715851 463.968445,156.715851 458.001373,156.715851 
	C458.001373,147.506577 457.969818,138.239670 458.020325,128.973206 
	C458.035736,126.144394 458.438995,123.226700 454.328369,122.999664 
	C451.047241,122.818443 447.066284,126.192963 447.031769,129.511734 
	C446.938354,138.486343 446.999756,147.462570 446.999756,156.718170 
	C441.704224,156.718170 436.632263,156.718170 431.278351,156.718170 
	C431.278351,141.359970 431.278351,125.955399 431.278351,110.275253 
	C435.657990,110.275253 440.082428,110.275253 444.801483,110.275253 
	C444.897095,111.274277 445.002625,112.376915 445.124542,113.650925 
	C446.036224,113.314278 446.893402,112.977013 447.764252,112.679832 
	C451.377106,111.446922 454.913086,109.591576 458.624481,109.117928 
	C470.517426,107.600128 473.787231,115.944016 474.920685,125.018028 
	C475.392090,128.791962 474.998810,132.673904 474.998779,137.005524 
z"/>
<path fill="#FFFFFF" opacity="1.000000" stroke="none" 
	d="
M309.998718,137.028290 
	C309.998718,143.824829 309.998718,150.126022 309.998718,157.170532 
	C305.004761,155.946411 299.718750,159.144821 295.074524,154.741043 
	C289.982117,158.888046 283.689453,160.369385 276.902039,158.312119 
	C270.643646,156.415192 267.976837,150.773483 268.012024,143.620956 
	C268.044617,136.995346 271.399841,132.229752 277.555664,130.014740 
	C279.951782,129.152557 282.357086,128.243393 284.833588,127.697517 
	C287.362915,127.140007 289.984711,127.001976 292.569580,126.679855 
	C292.339417,123.267776 289.105042,121.033562 285.233948,122.080528 
	C282.497070,122.820724 279.978821,124.360390 277.246887,125.132378 
	C276.220856,125.422318 274.513000,124.901917 273.748352,124.126991 
	C272.685974,123.050331 272.260498,121.362915 271.485352,119.980156 
	C270.707214,118.592125 269.834564,117.257088 268.957336,115.823647 
	C276.688629,109.692787 285.588470,108.175674 295.044159,109.031647 
	C301.903534,109.652573 308.023102,115.701859 308.949890,122.841446 
	C309.538300,127.374268 309.664978,131.967026 309.998718,137.028290 
M285.835632,145.971786 
	C292.864441,145.811356 293.596863,144.875000 292.562714,137.371338 
	C283.560486,140.081970 283.011719,140.687424 285.835632,145.971786 
z"/>
<path fill="#FFFFFF" opacity="1.000000" stroke="none" 
	d="
M495.767395,128.676453 
	C499.573792,127.739471 503.066925,127.078697 506.548401,126.420135 
	C505.586853,122.452332 502.821503,120.744217 498.614258,122.198547 
	C495.309937,123.340744 492.159607,124.928421 489.217102,126.198936 
	C488.652679,125.883995 488.444763,125.841103 488.377472,125.720062 
	C481.205505,112.816238 482.235901,114.101074 497.273712,109.605721 
	C504.769775,107.364861 513.752869,107.185585 519.406067,114.958336 
	C521.684998,118.091667 523.539795,122.212257 523.794922,126.004158 
	C524.419067,135.280258 523.998657,144.626648 523.998596,153.944748 
	C523.998596,154.759308 523.998535,155.573883 523.998535,157.575699 
	C518.839111,156.905090 513.973022,155.990204 509.076416,155.777176 
	C507.157562,155.693695 505.146118,157.128128 503.218384,157.966721 
	C496.044952,161.087311 488.596954,159.087830 484.339752,152.856628 
	C478.288483,143.999481 482.741333,132.579926 493.248108,129.948944 
	C494.018341,129.756073 494.720398,129.291138 495.767395,128.676453 
M497.049194,143.488403 
	C499.591736,146.256424 502.819305,147.168777 505.549774,144.576126 
	C507.254578,142.957367 507.652771,139.962585 508.637299,137.585281 
	C508.001160,137.145859 507.365021,136.706421 506.728882,136.266998 
	C503.497406,138.415939 500.265930,140.564896 497.049194,143.488403 
z"/>
<path fill="#FFFFFF" opacity="1.000000" stroke="none" 
	d="
M388.741394,111.693512 
	C394.142883,110.622650 399.205780,109.481598 404.327240,109.070503 
	C414.562103,108.248940 421.247711,116.474998 421.833374,125.194611 
	C422.531830,135.593918 421.997986,146.075989 421.997986,157.665665 
	C416.702148,156.904785 411.847870,155.939621 406.953278,155.646057 
	C405.186523,155.540085 403.346527,157.628189 401.499268,157.702423 
	C396.639099,157.897736 391.307678,158.738998 386.984985,157.124588 
	C379.966949,154.503479 379.486328,147.628830 380.021942,141.018829 
	C380.379944,136.600342 385.649384,131.220810 390.412079,129.976654 
	C395.177673,128.731750 399.897736,127.312416 404.611481,125.976974 
	C402.770386,121.094543 402.770386,121.094543 386.977600,125.969612 
	C380.288635,116.224976 380.521088,113.980362 388.741394,111.693512 
M402.504608,145.045242 
	C406.927826,143.716385 406.112183,140.373337 405.658203,136.234970 
	C401.603699,138.417984 398.017456,140.348877 394.431183,142.279785 
	C394.570770,143.020706 394.710358,143.761642 394.849945,144.502579 
	C397.209625,144.867523 399.569305,145.232468 402.504608,145.045242 
z"/>
<path fill="#FFFFFF" opacity="1.000000" stroke="none" 
	d="
M334.968689,155.770660 
	C329.768463,156.599640 324.594421,156.946228 319.195618,157.307892 
	C319.195618,141.197952 319.195618,125.801453 319.195618,110.426956 
	C331.111633,109.070213 331.493347,109.189331 333.802429,114.902924 
	C339.373871,108.479858 346.870453,107.050392 353.084503,110.896988 
	C351.968903,115.168556 350.841553,119.485069 349.724884,123.760811 
	C335.516052,123.170509 334.457794,129.230194 334.956512,139.803406 
	C335.199493,144.954163 334.996155,150.125977 334.968689,155.770660 
z"/>
<path fill="#FFFFFF" opacity="1.000000" stroke="none" 
	d="
M371.999329,135.999847 
	C371.999329,143.141678 371.999329,149.783539 371.999329,156.711914 
	C366.717468,156.711914 361.646576,156.711914 356.285950,156.711914 
	C356.285950,141.380890 356.285950,125.979828 356.285950,110.289291 
	C361.282043,110.289291 366.352844,110.289291 371.999329,110.289291 
	C371.999329,118.640762 371.999329,127.070320 371.999329,135.999847 
z"/>
<path fill="#FFFFFF" opacity="1.000000" stroke="none" 
	d="
M370.476410,91.169502 
	C373.291870,93.919968 375.133545,96.467369 373.194061,100.399788 
	C370.978882,104.891266 367.338165,107.054192 362.899384,105.770821 
	C360.050598,104.947159 357.029053,102.381859 355.529144,99.768417 
	C353.150696,95.624298 357.086761,90.051048 361.937805,90.060249 
	C364.658081,90.065414 367.377197,90.673172 370.476410,91.169502 
z"/>
<path fill="#36414F" opacity="1.000000" stroke="none" 
	d="
M80.199562,186.214050 
	C82.209572,184.923859 84.227608,184.007858 86.748535,183.385208 
	C87.821465,183.816620 88.391502,183.954666 89.003250,184.080902 
	C89.044952,184.069077 89.051254,183.982620 89.051254,183.982620 
	C89.512054,189.525192 86.903122,193.534454 82.747002,196.835388 
	C82.006302,197.423691 81.563690,198.387299 80.730469,199.589783 
	C80.477509,200.001953 80.061150,200.022125 80.061150,200.022125 
	C73.249420,200.475250 66.437691,200.928391 59.625961,201.381516 
	C59.481396,200.832642 59.336826,200.283752 59.192261,199.734879 
	C63.453968,197.339279 67.790352,195.065109 71.951691,192.506271 
	C74.828796,190.737122 77.464188,188.574860 80.199562,186.214050 
z"/>
<path fill="#36414E" opacity="1.000000" stroke="none" 
	d="
M132.271484,200.078247 
	C129.254333,194.202087 126.627892,188.498459 124.016533,182.422577 
	C127.835793,183.637772 131.639969,185.225220 135.759949,187.038071 
	C138.269363,190.134750 140.411057,193.047943 142.679260,195.859055 
	C143.759537,197.197922 145.080521,198.342606 146.292465,199.575241 
	C146.032074,200.118271 145.771698,200.661285 145.511307,201.204315 
	C141.228271,200.886459 136.945251,200.568604 132.271484,200.078247 
z"/>
<path fill="#EADDCF" opacity="1.000000" stroke="none" 
	d="
M41.636002,60.037094 
	C42.335293,61.219765 42.703545,62.248775 43.005371,63.613838 
	C38.208752,62.599674 33.478550,61.249462 28.498678,59.827988 
	C26.700102,56.199055 24.532576,51.825706 22.460646,47.645233 
	C26.847795,48.520451 31.618904,49.472263 36.630463,50.472042 
	C37.920525,53.069386 39.612743,56.476410 41.636002,60.037094 
z"/>
<path fill="#EBDFD1" opacity="1.000000" stroke="none" 
	d="
M191.866562,130.947754 
	C187.798706,131.895111 183.550659,131.910110 179.766388,133.242447 
	C177.266525,134.122589 176.521866,133.886765 175.266205,131.823044 
	C173.169724,128.377472 170.689407,125.165459 168.370667,121.855125 
	C167.694336,122.498528 167.018005,123.141937 166.341675,123.785347 
	C171.244553,122.864067 176.147415,121.942787 180.535294,121.118279 
	C184.159958,124.138855 188.021683,127.356987 191.866562,130.947754 
z"/>
<path fill="#EADED0" opacity="1.000000" stroke="none" 
	d="
M169.122665,68.014954 
	C170.542847,66.935913 171.963028,65.856865 173.740356,64.767578 
	C178.131241,64.757332 182.164978,64.757332 186.048767,64.757332 
	C183.287994,68.314835 180.140762,72.370338 177.357712,75.956543 
	C172.341263,75.956543 167.235153,75.956543 162.281540,75.956543 
	C164.021744,74.076515 166.029678,71.907234 168.098389,69.383934 
	C168.159164,69.029915 168.068878,68.992661 168.324036,68.973938 
	C168.760330,68.641792 168.941498,68.328377 169.122665,68.014954 
z"/>
<path fill="#E9DCCF" opacity="1.000000" stroke="none" 
	d="
M179.496063,103.147278 
	C175.670700,101.817230 172.191513,100.635109 169.047394,99.566826 
	C172.941452,97.241470 177.250473,94.668312 181.443512,92.164421 
	C185.418121,93.776939 189.860245,95.579140 194.062057,97.283844 
	C190.357605,99.623398 186.269501,102.205246 181.194092,105.410629 
	C181.210785,105.436760 180.526520,104.365990 179.496063,103.147278 
z"/>
<path fill="#EBDED0" opacity="1.000000" stroke="none" 
	d="
M31.740120,84.432068 
	C29.383018,85.153679 26.822981,85.439186 24.306496,85.942467 
	C22.137001,86.376358 20.017105,87.058228 18.834852,87.374100 
	C15.199261,83.715294 11.738125,80.232063 8.930536,77.406548 
	C12.241370,76.829880 16.889877,76.020226 21.117428,75.283897 
	C24.350975,78.011879 27.953531,81.051186 31.740120,84.432068 
z"/>
<path fill="#EADECF" opacity="1.000000" stroke="none" 
	d="
M16.898092,116.955460 
	C12.191072,114.864189 7.871560,112.741508 3.894750,110.787239 
	C7.430512,108.683510 11.813542,106.075676 16.083368,103.535202 
	C19.768248,105.428909 23.725346,107.462517 27.317114,109.308380 
	C24.119503,111.735924 20.702553,114.329987 16.898092,116.955460 
z"/>
<path fill="#ECE0D1" opacity="1.000000" stroke="none" 
	d="
M149.986572,55.615597 
	C149.562256,55.220325 149.314255,54.491886 149.045319,53.446999 
	C150.389725,49.341167 151.755096,45.551785 153.251984,41.397385 
	C156.378571,40.861729 160.469666,40.160831 165.066391,39.373310 
	C164.258865,43.209988 163.412872,47.229492 162.629578,50.951138 
	C158.550247,52.368420 154.356583,53.825424 149.986572,55.615597 
z"/>
<path fill="#EADDCF" opacity="1.000000" stroke="none" 
	d="
M31.869881,134.010895 
	C28.257212,137.165817 24.644541,140.320755 21.009571,143.765015 
	C17.487305,143.809586 13.987341,143.564819 11.246687,143.373169 
	C13.951852,140.222580 17.108536,136.546112 20.737072,132.320114 
	C23.419931,132.500458 27.285095,132.760269 31.604263,133.065262 
	C32.058270,133.110428 32.028000,133.031448 31.964369,133.283783 
	C31.900738,133.536118 31.869879,134.010895 31.869881,134.010895 
z"/>
<path fill="#645756" opacity="1.000000" stroke="none" 
	d="
M44.690865,84.136551 
	C42.985825,92.980774 41.280777,101.824997 39.575733,110.669228 
	C39.828182,110.753822 40.080631,110.838425 40.333076,110.923019 
	C40.170109,109.226013 40.007137,107.529007 39.717331,104.511253 
	C39.166767,108.062263 38.824493,110.269875 38.183884,112.740936 
	C38.470203,106.588226 38.855824,100.145164 39.718243,93.766556 
	C40.193821,90.249077 41.469978,86.839828 42.850510,83.464523 
	C43.774155,83.743683 44.232510,83.940117 44.690865,84.136551 
z"/>
<path fill="#EBDFD0" opacity="1.000000" stroke="none" 
	d="
M140.877899,33.424644 
	C137.345444,31.442940 133.866745,29.075434 130.214142,26.432777 
	C132.856766,24.173557 135.673264,22.189484 138.167526,20.432407 
	C139.120483,24.778564 140.026062,28.908707 140.877899,33.424644 
z"/>
<path fill="#FF00FF" opacity="1.000000" stroke="none" 
	d="
M590.579102,97.293686 
	C590.994995,116.750465 590.996277,136.333725 590.995605,156.374878 
	C590.663696,156.214523 590.045593,155.596283 590.045654,154.978104 
	C590.048157,135.792114 590.110962,116.606148 590.579102,97.293686 
z"/>
<path fill="#FFFFFF" opacity="1.000000" stroke="none" 
	d="
M80.215515,200.432175 
	C80.061150,200.022125 80.477509,200.001953 80.682404,199.962692 
	C97.304428,199.953583 113.721565,199.983734 130.612549,200.022552 
	C130.255753,200.353943 129.425156,200.957642 128.594421,200.957825 
	C112.519585,200.961502 96.444725,200.894608 80.215515,200.432175 
z"/>
<path fill="#E9DCCF" opacity="1.000000" stroke="none" 
	d="
M170.357697,158.975403 
	C169.673721,155.732193 169.274750,152.527573 169.089401,149.310608 
	C169.042206,148.491699 169.673203,147.633698 170.286713,146.840744 
	C172.367340,151.717972 174.153854,156.548126 175.876740,161.206192 
	C174.710083,160.709000 172.716049,159.859207 170.357697,158.975403 
z"/>
<path fill="#EEDED1" opacity="1.000000" stroke="none" 
	d="
M56.943909,184.522827 
	C57.456451,182.931046 57.998432,181.736115 58.868790,179.817200 
	C60.079086,181.605469 61.035748,183.018997 62.040791,184.787384 
	C60.348793,187.115570 58.608414,189.088867 56.387230,191.607300 
	C56.628750,188.851547 56.801048,186.885620 56.943909,184.522827 
z"/>
<path fill="#B7A6A1" opacity="1.000000" stroke="none" 
	d="
M70.424995,186.759964 
	C70.702057,186.101257 71.301773,185.654312 72.371223,185.112579 
	C73.197876,184.850708 73.554794,184.683609 73.911720,184.516510 
	C73.301048,184.396332 72.690376,184.276154 72.079704,184.155975 
	C72.079704,182.707535 72.079704,181.259125 72.079704,179.817551 
	C74.435944,181.013794 76.500160,182.061768 78.733757,183.338547 
	C76.184639,184.702133 73.466148,185.836929 70.424995,186.759964 
z"/>
<path fill="#A69691" opacity="1.000000" stroke="none" 
	d="
M45.019302,83.968979 
	C44.232510,83.940117 43.774155,83.743683 43.194954,83.314369 
	C44.279835,79.935593 45.485565,76.789696 46.886154,73.359917 
	C47.247787,73.112686 47.414566,73.149353 47.827370,73.257919 
	C47.164845,76.820358 46.256294,80.310883 45.019302,83.968979 
z"/>
<path fill="#645756" opacity="1.000000" stroke="none" 
	d="
M37.501625,115.927673 
	C37.696007,117.086906 37.560825,118.317543 37.119175,119.776779 
	C36.932487,118.669945 37.052269,117.334511 37.501625,115.927673 
z"/>
<path fill="#645756" opacity="1.000000" stroke="none" 
	d="
M36.403259,121.822121 
	C36.568607,122.380295 36.462856,122.999313 36.090862,123.812103 
	C35.927135,123.298241 36.029648,122.590607 36.403259,121.822121 
z"/>
<path fill="#645756" opacity="1.000000" stroke="none" 
	d="
M34.359978,128.842499 
	C34.457783,129.538162 34.229225,130.312927 33.680187,131.164383 
	C33.584343,130.467911 33.808975,129.694763 34.359978,128.842499 
z"/>
<path fill="#B7A6A1" opacity="1.000000" stroke="none" 
	d="
M67.067909,186.176392 
	C67.164444,186.007477 67.347214,186.007294 67.803970,186.018341 
	C67.770027,186.134735 67.462090,186.239929 67.067909,186.176392 
z"/>
<path fill="#B7A6A1" opacity="1.000000" stroke="none" 
	d="
M64.310516,185.107849 
	C64.289810,184.933411 64.731583,184.996948 64.951958,185.033173 
	C64.891968,185.140381 64.611595,185.211334 64.310516,185.107849 
z"/>
<path fill="#CBA393" opacity="1.000000" stroke="none" 
	d="
M115.783890,138.674484 
	C117.006012,138.115433 118.196869,137.469879 119.456543,137.014771 
	C122.359909,135.965820 125.296684,135.009354 128.590393,133.960831 
	C128.170059,137.123428 127.379242,140.340576 125.940277,143.745300 
	C121.453697,143.389801 117.157928,143.673691 115.783890,138.674484 
z"/>
<path fill="#DDC2B2" opacity="1.000000" stroke="none" 
	d="
M124.859169,151.734528 
	C118.920654,152.316681 113.646797,150.634949 110.073685,145.510223 
	C107.497536,141.815384 108.757820,137.621735 112.662117,137.329468 
	C113.005096,137.972260 113.019104,138.215546 113.033112,138.458817 
	C113.033112,138.458817 113.095833,138.508957 113.054932,138.994858 
	C113.198357,145.430359 116.667938,148.435287 124.008926,149.003220 
	C124.258499,149.811172 124.508080,150.619125 124.859169,151.734528 
z"/>
<path fill="#D3AE9D" opacity="1.000000" stroke="none" 
	d="
M124.325653,148.833603 
	C116.667938,148.435287 113.198357,145.430359 113.042183,139.032928 
	C113.751564,138.647125 114.432777,138.709152 115.448944,138.722824 
	C117.157928,143.673691 121.453697,143.389801 125.650208,143.970413 
	C125.552986,145.559967 125.097687,147.111969 124.325653,148.833603 
z"/>
<path fill="#ECE0CF" opacity="1.000000" stroke="none" 
	d="
M104.088638,90.167007 
	C105.877220,94.227257 107.519669,97.962982 109.235550,101.865715 
	C104.813713,101.254715 102.264717,95.721077 102.480125,87.515701 
	C103.086632,88.480705 103.514580,89.161591 104.088638,90.167007 
z"/>
<path fill="#D1AD9D" opacity="1.000000" stroke="none" 
	d="
M63.366959,155.996399 
	C60.936504,150.576614 58.832279,145.114838 56.858894,139.331604 
	C57.587875,138.465363 58.186020,137.920593 59.073250,137.112518 
	C62.317371,143.231583 68.144211,142.281586 73.457680,142.100159 
	C77.683929,141.955856 79.186195,143.076660 77.402657,146.753189 
	C76.345200,148.933014 74.096947,150.535156 71.832962,152.826965 
	C69.516487,154.167404 67.751167,155.077927 65.985840,155.988434 
	C65.985840,155.988434 66.000305,156.000000 65.749695,155.986664 
	C65.499084,155.973312 65.008781,155.978210 65.008781,155.978210 
	C64.570251,155.970276 64.131721,155.962341 63.366959,155.996399 
z"/>
<path fill="#57919F" opacity="1.000000" stroke="none" 
	d="
M123.219460,119.887451 
	C124.836761,120.895187 127.960312,122.262054 127.819962,122.850739 
	C127.068787,126.001305 126.246681,129.904282 123.983810,131.681320 
	C122.178185,133.099289 117.410339,132.950806 115.530350,131.482986 
	C113.412506,129.829468 113.056992,125.918739 112.315254,122.404861 
	C114.625465,121.482445 116.555336,121.144974 118.344421,120.832115 
	C118.943306,123.641396 119.346962,125.534866 119.750610,127.428329 
	C120.050819,124.310760 119.403694,121.259079 123.219460,119.887451 
z"/>
<path fill="#BF8673" opacity="1.000000" stroke="none" 
	d="
M88.995605,179.011902 
	C89.231972,177.598923 89.468338,176.185944 89.868729,174.453354 
	C92.141655,174.434097 94.250542,174.734451 96.742172,175.461700 
	C97.892799,176.106094 98.660667,176.323608 99.428543,176.541107 
	C99.279877,176.023483 99.131203,175.505859 98.982529,174.988235 
	C102.412979,173.019623 105.843430,171.051010 109.661880,169.379608 
	C110.383095,170.125275 110.716309,170.573761 111.049522,171.022232 
	C107.405861,177.926956 95.916100,186.227051 89.413437,184.027100 
	C89.051254,183.982620 89.044952,184.069077 89.010727,183.736328 
	C88.987396,182.944595 88.998291,182.485626 89.184082,181.931671 
	C89.246857,181.538437 89.134758,181.240158 89.022079,180.707260 
	C89.021515,180.472641 89.011803,180.003494 89.011803,180.003494 
	C89.011803,180.003494 88.999695,180.000000 89.171158,179.912323 
	C89.226944,179.553726 89.111282,179.282822 88.995605,179.011902 
z"/>
<path fill="#5694A4" opacity="1.000000" stroke="none" 
	d="
M63.424057,125.994713 
	C63.742893,125.881592 64.069206,125.852570 65.090729,125.961983 
	C68.431740,126.311806 72.070786,124.528175 72.285957,128.185745 
	C74.396530,127.763763 76.385231,127.366142 78.373924,126.968521 
	C80.224731,135.386810 77.803413,139.334732 71.347504,137.735611 
	C69.258949,137.218292 67.453079,134.719040 65.994156,132.769913 
	C64.852905,131.245209 64.447174,129.169968 63.430771,126.859680 
	C63.146904,126.380020 63.424057,125.994713 63.424057,125.994713 
M73.848953,132.208740 
	C73.665901,131.938858 73.482857,131.668961 73.299812,131.399078 
	C73.346008,131.795013 73.392204,132.190964 73.848953,132.208740 
z"/>
<path fill="#46433C" opacity="1.000000" stroke="none" 
	d="
M123.016190,119.575226 
	C119.403694,121.259079 120.050819,124.310760 119.750610,127.428329 
	C119.346962,125.534866 118.943306,123.641396 118.344421,120.832115 
	C116.555336,121.144974 114.625465,121.482445 112.332031,121.995178 
	C111.968475,122.170448 111.908432,122.083809 111.978989,121.712929 
	C112.374962,120.287415 112.700371,119.232773 113.025787,118.178139 
	C116.665398,115.136589 119.610962,118.356369 123.016190,119.575226 
M114.483681,119.581200 
	C114.483681,119.581200 114.419861,119.470421 114.483681,119.581200 
z"/>
<path fill="#3E3B35" opacity="1.000000" stroke="none" 
	d="
M78.190910,126.644257 
	C76.385231,127.366142 74.396530,127.763763 72.285957,128.185745 
	C72.070786,124.528175 68.431740,126.311806 65.338028,125.975449 
	C70.707588,121.640442 71.633484,121.667664 78.190910,126.644257 
z"/>
<path fill="#5B554D" opacity="1.000000" stroke="none" 
	d="
M112.620407,118.104004 
	C112.700371,119.232773 112.374962,120.287415 112.015106,121.674530 
	C109.430305,122.815285 106.879959,123.623550 104.592415,124.348518 
	C105.296341,120.380974 108.039978,117.929489 112.620407,118.104004 
z"/>
<path fill="#B7A6A1" opacity="1.000000" stroke="none" 
	d="
M81.121613,169.529144 
	C80.510857,171.155655 79.818535,172.395844 78.533577,174.697678 
	C77.512329,172.529648 76.531166,170.446732 75.810501,168.157211 
	C77.727341,168.348022 79.383690,168.745422 81.121613,169.529144 
z"/>
<path fill="#E6D5C4" opacity="1.000000" stroke="none" 
	d="
M66.283981,156.015457 
	C67.751167,155.077927 69.516487,154.167404 71.614647,153.092712 
	C72.171021,155.267639 72.030708,157.326111 68.401993,157.001923 
	C68.000000,157.000000 67.992981,156.994583 67.992981,156.994583 
	C67.522697,156.677216 67.052414,156.359848 66.283981,156.015457 
z"/>
<path fill="#BE8A78" opacity="1.000000" stroke="none" 
	d="
M111.360458,170.898987 
	C110.716309,170.573761 110.383095,170.125275 110.024361,169.384048 
	C111.002304,168.317566 112.005775,167.543839 113.009239,166.770126 
	C113.333893,167.083557 113.658546,167.396988 113.983200,167.710419 
	C113.212601,168.732208 112.442001,169.753983 111.360458,170.898987 
z"/>
<path fill="#514B46" opacity="1.000000" stroke="none" 
	d="
M63.225601,125.702866 
	C63.424057,125.994713 63.146904,126.380020 63.172081,126.617493 
	C62.458050,127.067482 61.722946,127.389809 60.976833,127.417702 
	C60.782784,127.424950 60.554367,126.512985 60.341736,126.023224 
	C61.236874,125.819153 62.132011,125.615082 63.225601,125.702866 
z"/>
<path fill="#BE8A78" opacity="1.000000" stroke="none" 
	d="
M98.653137,175.046967 
	C99.131203,175.505859 99.279877,176.023483 99.428543,176.541107 
	C98.660667,176.323608 97.892799,176.106094 97.061928,175.593735 
	C97.440529,175.234497 97.882141,175.170090 98.653137,175.046967 
z"/>
<path fill="#B7A6A1" opacity="1.000000" stroke="none" 
	d="
M68.144966,162.590240 
	C67.513962,162.512329 66.810509,162.109009 66.056015,161.375549 
	C66.694160,161.451874 67.383339,161.858353 68.144966,162.590240 
z"/>
<path fill="#E6D5C4" opacity="1.000000" stroke="none" 
	d="
M65.018394,156.235382 
	C65.008781,155.978210 65.499084,155.973312 65.744057,155.979065 
	C65.784813,156.392807 65.580605,156.800797 65.376396,157.208786 
	C65.260269,156.970047 65.144135,156.731293 65.018394,156.235382 
z"/>
<path fill="#DDC2B2" opacity="1.000000" stroke="none" 
	d="
M64.528671,123.553253 
	C64.478165,123.583740 64.579185,123.522766 64.528671,123.553253 
z"/>
<path fill="#CBA393" opacity="1.000000" stroke="none" 
	d="
M113.229416,138.291107 
	C113.019104,138.215546 113.005096,137.972260 112.994247,137.363464 
	C113.140175,137.373077 113.282944,137.748245 113.229416,138.291107 
z"/>
<path fill="#E6D5C4" opacity="1.000000" stroke="none" 
	d="
M68.002815,157.003662 
	C67.907906,157.040482 67.810173,157.073624 67.852715,157.050674 
	C67.992981,156.994583 68.000000,157.000000 68.002815,157.003662 
z"/>
<path fill="#5495A6" opacity="1.000000" stroke="none" 
	d="
M82.691368,36.867813 
	C77.980865,37.159157 75.645226,34.203209 76.310280,30.826738 
	C76.976822,27.442722 79.805847,24.484644 81.687065,21.339876 
	C83.180832,22.462765 85.045326,23.314354 86.101440,24.757519 
	C89.825089,29.845797 88.680977,33.982563 82.691368,36.867813 
z"/>
<path fill="#5494A5" opacity="1.000000" stroke="none" 
	d="
M79.987968,43.992477 
	C84.808929,44.255489 87.126785,46.789513 86.877312,51.016651 
	C86.608459,55.571930 82.248024,55.322025 79.350784,55.676220 
	C78.112190,55.827641 75.609528,53.052174 75.239288,51.280975 
	C74.562561,48.043587 74.939049,44.498329 79.987968,43.992477 
z"/>
<path fill="#5391A1" opacity="1.000000" stroke="none" 
	d="
M56.741997,52.428246 
	C57.738796,52.136906 58.397926,51.982376 59.056904,51.983017 
	C62.738110,51.986633 65.336464,53.940239 65.708107,57.393452 
	C65.876053,58.953945 63.942532,62.030849 62.697300,62.178116 
	C60.284557,62.463463 57.221573,61.793110 55.273788,60.365173 
	C52.589890,58.397583 53.858715,55.633667 55.771099,53.410137 
	C55.988289,53.157608 56.193493,52.894764 56.741997,52.428246 
z"/>
<path fill="#5495A7" opacity="1.000000" stroke="none" 
	d="
M48.451157,31.399929 
	C54.049515,31.716141 56.251545,34.895218 55.674210,41.266766 
	C53.656021,42.121548 51.587502,42.997643 49.515594,43.869057 
	C44.985500,39.824066 44.662647,36.981499 48.451157,31.399929 
z"/>
<path fill="#000000" opacity="1.000000" stroke="none" 
	d="
M168.827332,68.074600 
	C168.941498,68.328377 168.760330,68.641792 168.307007,69.019707 
	C168.200562,68.767548 168.366287,68.450890 168.827332,68.074600 
z"/>
<path fill="#221D1D" opacity="1.000000" stroke="none" 
	d="
M30.168201,153.460938 
	C30.970772,151.862579 31.700130,150.651703 32.171753,149.868729 
	C33.227192,153.924774 34.442123,157.966141 35.259972,162.086319 
	C35.536232,163.478058 34.806484,165.069504 34.536491,166.569672 
	C33.272469,165.912338 31.058842,165.420532 30.910351,164.568726 
	C30.297771,161.054688 30.311474,157.431503 30.168201,153.460938 
z"/>
<path fill="#B7A6A1" opacity="1.000000" stroke="none" 
	d="
M89.009193,182.026642 
	C88.998291,182.485626 88.987396,182.944595 88.969025,183.748138 
	C88.391502,183.954666 87.821465,183.816620 87.100410,183.425568 
	C87.436203,182.214478 87.923012,181.256378 88.710815,180.150879 
	C89.011803,180.003494 89.021515,180.472641 89.015121,180.978699 
	C89.008888,181.665375 89.009041,181.846008 89.009193,182.026642 
z"/>
<path fill="#B7A6A1" opacity="1.000000" stroke="none" 
	d="
M81.954437,175.606812 
	C81.712204,175.209869 81.713905,174.815002 81.744164,174.422318 
	C81.745010,174.411301 82.051102,174.423798 82.214874,174.425339 
	C82.210701,174.819946 82.206528,175.214554 81.954437,175.606812 
z"/>
<path fill="#B7A6A1" opacity="1.000000" stroke="none" 
	d="
M72.522263,173.923599 
	C71.814491,173.884628 71.370880,173.800766 70.927261,173.716919 
	C70.930016,173.543671 70.932770,173.370438 70.935516,173.197205 
	C71.578827,173.197205 72.222755,173.183411 72.864738,173.212646 
	C72.957146,173.216873 73.129143,173.451340 73.106644,173.538620 
	C73.072586,173.670715 72.900085,173.767136 72.522263,173.923599 
z"/>
<path fill="#B7A6A1" opacity="1.000000" stroke="none" 
	d="
M62.114292,167.298767 
	C62.405739,167.216003 62.794498,167.307587 62.876198,167.518234 
	C62.943729,167.692398 62.648491,168.007233 62.513992,168.259735 
	C62.368900,168.014709 62.223812,167.769684 62.114292,167.298767 
z"/>
<path fill="#B7A6A1" opacity="1.000000" stroke="none" 
	d="
M70.294479,170.885391 
	C70.211708,170.593307 70.302399,170.205811 70.513680,170.121902 
	C70.685097,170.053802 71.001335,170.350296 71.253349,170.485092 
	C71.008919,170.630463 70.764488,170.775818 70.294479,170.885391 
z"/>
<path fill="#B7A6A1" opacity="1.000000" stroke="none" 
	d="
M62.202076,174.343506 
	C61.860535,174.047913 61.728569,173.805893 61.596603,173.563858 
	C61.846863,173.491959 62.097118,173.420059 62.347374,173.348160 
	C62.368797,173.697784 62.390224,174.047424 62.202076,174.343506 
z"/>
<path fill="#B7A6A1" opacity="1.000000" stroke="none" 
	d="
M66.014549,175.011230 
	C65.485596,175.159546 64.957283,175.310593 64.423019,175.436340 
	C64.412483,175.438812 64.332138,175.144730 64.284355,174.988998 
	C64.692802,174.931778 65.101250,174.874557 65.754868,174.908615 
	C66.000038,174.999893 66.014549,175.011230 66.014549,175.011230 
z"/>
<path fill="#000000" opacity="1.000000" stroke="none" 
	d="
M72.175713,184.281647 
	C72.690376,184.276154 73.301048,184.396332 73.911720,184.516510 
	C73.554794,184.683609 73.197876,184.850708 72.495041,184.858337 
	C72.149124,184.698868 72.271721,184.407303 72.175713,184.281647 
z"/>
<path fill="#645756" opacity="1.000000" stroke="none" 
	d="
M32.185787,133.969254 
	C31.869879,134.010895 31.900738,133.536118 31.925125,133.299545 
	C32.133572,133.351181 32.317635,133.639404 32.185787,133.969254 
z"/>
<path fill="#B7A6A1" opacity="1.000000" stroke="none" 
	d="
M88.997787,179.261536 
	C89.111282,179.282822 89.226944,179.553726 89.174927,179.917542 
	C89.007240,180.010422 88.999962,179.511185 88.997787,179.261536 
z"/>
<path fill="#B7A6A1" opacity="1.000000" stroke="none" 
	d="
M65.994339,174.992676 
	C66.088669,174.954895 66.188705,174.924347 66.151642,174.952515 
	C66.014549,175.011230 66.000038,174.999893 65.994339,174.992676 
z"/>
<path fill="#514B46" opacity="1.000000" stroke="none" 
	d="
M37.590412,162.366791 
	C37.622059,162.625366 37.492149,162.794418 37.379368,162.783661 
	C37.267189,162.772980 37.172215,162.581696 37.069698,162.469589 
	C37.191921,162.379211 37.314140,162.288834 37.590412,162.366791 
z"/>
<path fill="#B7A6A1" opacity="1.000000" stroke="none" 
	d="
M68.465355,173.448013 
	C68.522713,173.413406 68.407997,173.482620 68.465355,173.448013 
z"/>
<path fill="#000000" opacity="1.000000" stroke="none" 
	d="
M564.826660,118.435593 
	C561.619324,123.991302 560.932251,124.240532 550.344971,123.880432 
	C550.344971,119.180000 550.344971,114.450256 550.344971,109.656006 
	C559.594910,106.991997 566.366882,110.765579 564.826660,118.435593 
z"/>
<path fill="#000000" opacity="1.000000" stroke="none" 
	d="
M285.464478,145.792175 
	C283.011719,140.687424 283.560486,140.081970 292.562714,137.371338 
	C293.596863,144.875000 292.864441,145.811356 285.464478,145.792175 
z"/>
<path fill="#000000" opacity="1.000000" stroke="none" 
	d="
M497.041809,143.101120 
	C500.265930,140.564896 503.497406,138.415939 506.728882,136.266998 
	C507.365021,136.706421 508.001160,137.145859 508.637299,137.585281 
	C507.652771,139.962585 507.254578,142.957367 505.549774,144.576126 
	C502.819305,147.168777 499.591736,146.256424 497.041809,143.101120 
z"/>
<path fill="#000000" opacity="1.000000" stroke="none" 
	d="
M402.216797,145.321320 
	C399.569305,145.232468 397.209625,144.867523 394.849945,144.502579 
	C394.710358,143.761642 394.570770,143.020706 394.431183,142.279785 
	C398.017456,140.348877 401.603699,138.417984 405.658203,136.234970 
	C406.112183,140.373337 406.927826,143.716385 402.216797,145.321320 
z"/>
<path fill="#B9A8A3" opacity="1.000000" stroke="none" 
	d="
M89.184082,181.931671 
	C89.009041,181.846008 89.008888,181.665375 89.015694,181.213318 
	C89.134758,181.240158 89.246857,181.538437 89.184082,181.931671 
z"/>
<path fill="#3E3B35" opacity="1.000000" stroke="none" 
	d="
M73.643677,132.397827 
	C73.392204,132.190964 73.346008,131.795013 73.299805,131.399078 
	C73.482857,131.668961 73.665901,131.938858 73.643677,132.397827 
z"/>
<path fill="#5B554D" opacity="1.000000" stroke="none" 
	d="
M114.451767,119.525810 
	C114.419861,119.470421 114.483681,119.581200 114.451767,119.525810 
z"/>
</svg>